<?xml version="1.0" standalone="no"?>
<!DOCTYPE svg PUBLIC "-//W3C//DTD SVG 20010904//EN"
 "http://www.w3.org/TR/2001/REC-SVG-20010904/DTD/svg10.dtd">
<svg version="1.0" xmlns="http://www.w3.org/2000/svg"
 width="225.000000pt" height="225.000000pt" viewBox="0 0 225.000000 225.000000"
 preserveAspectRatio="xMidYMid meet">
<metadata>
Created by potrace 1.11, written by Peter Selinger 2001-2013
</metadata>
<g transform="translate(0.000000,225.000000) scale(0.100000,-0.100000)"
fill="#000000" stroke="none">
<path d="M83 2232 c-17 -9 -42 -30 -55 -47 l-23 -30 0 -1032 c0 -1021 0 -1032
20 -1059 11 -15 36 -35 55 -45 33 -18 81 -19 1038 -19 1073 0 1047 -1 1092 48
69 75 38 204 -58 243 -14 5 -398 9 -938 9 l-914 0 0 915 c0 898 0 917 -20 955
-34 67 -132 98 -197 62z"/>
<path d="M1249 2246 c-2 -2 -25 -7 -51 -10 -95 -13 -232 -66 -333 -129 -77
-47 -229 -192 -240 -228 -4 -11 -10 -19 -15 -19 -16 0 -111 -206 -131 -285
-22 -84 -31 -275 -17 -366 49 -336 306 -624 645 -725 73 -22 110 -26 218 -28
134 -1 168 2 270 29 153 39 372 182 415 270 31 64 21 117 -32 168 -23 22 -50
38 -66 39 -15 0 -34 2 -42 3 -30 3 -68 -17 -126 -66 -119 -101 -264 -151 -414
-144 -99 4 -122 9 -194 36 -166 61 -304 210 -359 384 -31 97 -31 251 0 350 58
186 209 337 395 397 83 27 223 32 308 12 97 -22 190 -70 269 -136 83 -71 163
-70 232 2 32 32 43 101 24 147 -39 93 -249 226 -433 274 -67 18 -311 36 -323
25z"/>
</g>
</svg>
